<svg version="1.2" xmlns="http://www.w3.org/2000/svg" viewBox="0 0 32 32" width="32" height="32"><style>.a{fill:#bdd1df}.b{fill:#fff}</style><path class="a" d="m16 0c8.8 0 16 7.2 16 16 0 8.8-7.2 16-16 16-8.8 0-16-7.2-16-16 0-8.8 7.2-16 16-16z"/><path fill-rule="evenodd" class="b" d="m12.5 8.9c0 1-0.7 1.7-1.9 1.7-1.2 0-1.9-0.7-1.9-1.7 0-1 0.7-1.7 1.9-1.7 1.1 0 1.8 0.7 1.9 1.7zm-3.5 14.1v-11h3v11zm5-11h2.7l0.3 1.1c0.5-0.7 1.4-1.5 3.3-1.5 2.2 0 3.7 1.3 3.7 4.5v6.9h-3v-6.4c0-1.4-0.9-2.4-2.2-2.4-0.9 0-1.4 0.7-1.7 1.3-0.1 0.2-0.1 0.5-0.1 0.8v6.7h-3z"/></svg>