<svg version="1.2" xmlns="http://www.w3.org/2000/svg" viewBox="0 0 32 32" width="32" height="32"><style>.a{fill:#bdd1df}.b{fill:#fff}</style><path class="a" d="m16 0c8.8 0 16 7.2 16 16 0 8.8-7.2 16-16 16-8.8 0-16-7.2-16-16 0-8.8 7.2-16 16-16z"/><path fill-rule="evenodd" class="b" d="m8.6 11.1h14.9c0.8 0 0.4 0.8-0.1 1.1-0.5 0.2-6.2 4-6.5 4.1-0.2 0.2-0.6 0.2-0.9 0.2-0.3 0-0.7 0-0.9-0.2-0.3-0.1-6-3.9-6.5-4.1-0.5-0.3-0.9-1.1 0-1.1zm15 3.1c-0.5 0.3-6.4 4-6.7 4.2-0.3 0.2-0.6 0.2-0.9 0.2-0.3 0-0.6 0-0.9-0.2-0.3-0.2-6.1-3.9-6.7-4.2-0.4-0.2-0.4 0.1-0.4 0.3 0 0.2 0 7.5 0 7.5 0 0.5 0.6 1 1 1h14c0.4 0 1-0.5 1-1 0 0 0-7.3 0-7.5 0-0.2 0-0.5-0.4-0.3z"/></svg>